<svg id="svg" version="1.1" xmlns="http://www.w3.org/2000/svg" xmlns:xlink="http://www.w3.org/1999/xlink" width="400" height="360.8017817371937" viewBox="0, 0, 400,360.8017817371937"><g id="svgg"><path id="path0" d="M197.202 0.595 C 196.755 0.692,196.390 0.918,196.390 1.097 C 196.390 1.275,196.146 1.328,195.848 1.214 C 195.551 1.099,195.307 1.197,195.307 1.430 C 195.307 1.689,195.027 1.765,194.585 1.625 C 194.188 1.499,193.863 1.550,193.863 1.739 C 193.863 2.112,192.514 2.639,191.787 2.550 C 191.539 2.520,191.336 2.676,191.336 2.897 C 191.336 3.133,191.040 3.204,190.614 3.069 C 190.171 2.928,189.892 3.004,189.892 3.263 C 189.892 3.497,189.648 3.594,189.350 3.480 C 189.052 3.365,188.809 3.447,188.809 3.661 C 188.809 3.895,188.450 3.959,187.904 3.822 C 187.287 3.667,187.028 3.736,187.091 4.037 C 187.142 4.281,187.022 4.490,186.823 4.502 C 186.625 4.514,186.259 4.653,186.011 4.810 C 185.763 4.968,185.411 5.005,185.229 4.893 C 185.048 4.780,184.841 4.862,184.771 5.074 C 184.700 5.285,184.118 5.474,183.476 5.492 C 182.835 5.510,182.310 5.663,182.310 5.831 C 182.310 5.999,182.077 6.137,181.792 6.137 C 181.508 6.137,180.817 6.326,180.258 6.556 C 179.699 6.786,179.039 6.942,178.791 6.901 C 178.542 6.861,178.339 7.008,178.339 7.229 C 178.339 7.466,178.044 7.536,177.617 7.401 C 177.220 7.275,176.895 7.326,176.895 7.515 C 176.895 7.888,175.547 8.415,174.819 8.327 C 174.571 8.296,174.368 8.452,174.368 8.673 C 174.368 8.910,174.073 8.980,173.646 8.845 C 173.204 8.704,172.924 8.780,172.924 9.040 C 172.924 9.273,172.681 9.370,172.383 9.256 C 172.085 9.141,171.841 9.205,171.841 9.398 C 171.841 9.590,171.526 9.747,171.140 9.747 C 170.755 9.747,170.338 9.912,170.213 10.114 C 170.088 10.316,169.846 10.395,169.675 10.289 C 169.504 10.183,169.255 10.273,169.122 10.488 C 168.989 10.703,168.653 10.792,168.375 10.686 C 168.097 10.579,167.870 10.668,167.870 10.884 C 167.870 11.099,167.545 11.191,167.148 11.087 C 166.751 10.983,166.426 11.038,166.426 11.209 C 166.426 11.380,165.857 11.626,165.162 11.757 C 164.468 11.887,163.899 12.133,163.899 12.303 C 163.899 12.473,163.672 12.526,163.394 12.419 C 163.116 12.312,162.786 12.392,162.660 12.595 C 162.535 12.798,162.193 12.873,161.902 12.761 C 161.610 12.650,161.372 12.749,161.372 12.982 C 161.372 13.242,161.092 13.317,160.650 13.177 C 160.253 13.051,159.928 13.102,159.928 13.291 C 159.928 13.664,158.579 14.191,157.852 14.103 C 157.604 14.073,157.401 14.228,157.401 14.449 C 157.401 14.686,157.105 14.756,156.679 14.621 C 156.236 14.481,155.957 14.556,155.957 14.816 C 155.957 15.049,155.713 15.146,155.415 15.032 C 155.117 14.918,154.874 14.981,154.874 15.174 C 154.874 15.366,154.558 15.523,154.173 15.523 C 153.788 15.523,153.370 15.689,153.245 15.890 C 153.121 16.092,152.879 16.171,152.708 16.065 C 152.536 15.959,152.288 16.049,152.154 16.264 C 152.021 16.480,151.685 16.569,151.408 16.462 C 151.130 16.355,150.903 16.444,150.903 16.660 C 150.903 16.875,150.578 16.967,150.181 16.863 C 149.783 16.759,149.458 16.802,149.458 16.959 C 149.458 17.265,148.050 17.806,147.506 17.710 C 147.326 17.678,147.066 17.833,146.929 18.054 C 146.792 18.276,146.168 18.471,145.542 18.489 C 144.916 18.507,144.404 18.670,144.404 18.852 C 144.404 19.034,144.079 19.079,143.682 18.953 C 143.285 18.827,142.960 18.878,142.960 19.067 C 142.960 19.440,141.612 19.968,140.884 19.879 C 140.636 19.849,140.433 20.004,140.433 20.225 C 140.433 20.462,140.138 20.532,139.711 20.397 C 139.269 20.257,138.989 20.332,138.989 20.592 C 138.989 20.825,138.745 20.922,138.448 20.808 C 138.150 20.694,137.906 20.758,137.906 20.950 C 137.906 21.142,137.622 21.301,137.274 21.302 C 136.927 21.303,136.179 21.546,135.612 21.841 C 135.046 22.137,134.436 22.289,134.258 22.179 C 134.081 22.069,133.935 22.170,133.935 22.403 C 133.935 22.650,133.633 22.749,133.213 22.639 C 132.816 22.535,132.491 22.579,132.491 22.735 C 132.491 23.041,131.082 23.582,130.538 23.486 C 130.358 23.454,130.099 23.609,129.962 23.830 C 129.825 24.052,129.201 24.247,128.575 24.265 C 127.949 24.283,127.437 24.409,127.437 24.546 C 127.437 24.683,126.543 25.009,125.451 25.271 C 124.359 25.533,123.466 25.895,123.466 26.075 C 123.466 26.255,123.141 26.299,122.744 26.173 C 122.301 26.033,122.022 26.108,122.022 26.368 C 122.022 26.601,121.778 26.699,121.480 26.584 C 121.182 26.470,120.939 26.520,120.939 26.694 C 120.939 26.869,120.289 27.122,119.495 27.256 C 118.700 27.391,118.051 27.666,118.051 27.868 C 118.051 28.071,117.807 28.143,117.509 28.028 C 117.211 27.914,116.968 27.997,116.968 28.212 C 116.968 28.428,116.643 28.519,116.245 28.415 C 115.848 28.311,115.523 28.355,115.523 28.512 C 115.523 28.838,114.121 29.347,113.448 29.265 C 113.199 29.235,112.996 29.391,112.996 29.611 C 112.996 29.848,112.701 29.919,112.274 29.783 C 111.832 29.643,111.552 29.719,111.552 29.978 C 111.552 30.211,111.309 30.309,111.011 30.194 C 110.713 30.080,110.469 30.144,110.469 30.336 C 110.469 30.529,110.154 30.686,109.769 30.686 C 109.383 30.686,108.966 30.851,108.841 31.053 C 108.716 31.255,108.474 31.333,108.303 31.227 C 108.132 31.122,107.883 31.211,107.750 31.427 C 107.617 31.642,107.281 31.731,107.003 31.624 C 106.725 31.518,106.498 31.599,106.498 31.805 C 106.498 32.014,106.181 32.078,105.776 31.949 C 105.376 31.822,105.054 31.885,105.054 32.089 C 105.054 32.292,104.486 32.565,103.791 32.695 C 103.096 32.826,102.527 33.062,102.527 33.219 C 102.527 33.377,102.202 33.421,101.805 33.318 C 101.408 33.214,101.083 33.305,101.083 33.521 C 101.083 33.736,100.839 33.819,100.542 33.705 C 100.244 33.590,100.000 33.688,100.000 33.921 C 100.000 34.180,99.720 34.256,99.278 34.116 C 98.881 33.989,98.556 34.041,98.556 34.230 C 98.556 34.603,97.207 35.130,96.480 35.041 C 96.232 35.011,96.029 35.167,96.029 35.388 C 96.029 35.624,95.733 35.695,95.307 35.560 C 94.865 35.419,94.585 35.495,94.585 35.754 C 94.585 35.988,94.341 36.085,94.043 35.971 C 93.745 35.856,93.502 35.920,93.502 36.112 C 93.502 36.305,93.186 36.462,92.801 36.462 C 92.416 36.462,91.998 36.627,91.874 36.829 C 91.749 37.031,91.507 37.109,91.336 37.004 C 91.165 36.898,90.916 36.988,90.783 37.203 C 90.650 37.418,90.313 37.507,90.036 37.401 C 89.758 37.294,89.531 37.383,89.531 37.599 C 89.531 37.814,89.206 37.905,88.808 37.801 C 88.411 37.697,88.168 37.745,88.268 37.908 C 88.369 38.070,87.800 38.313,87.005 38.447 C 86.210 38.582,85.560 38.825,85.560 38.987 C 85.560 39.150,85.235 39.198,84.838 39.094 C 84.440 38.990,84.116 39.081,84.116 39.297 C 84.116 39.512,83.872 39.595,83.574 39.481 C 83.276 39.366,83.032 39.456,83.032 39.679 C 83.032 39.939,82.687 39.999,82.076 39.846 C 81.457 39.691,81.201 39.737,81.350 39.979 C 81.583 40.355,80.347 40.919,79.513 40.818 C 79.264 40.787,79.061 40.943,79.061 41.164 C 79.061 41.401,78.766 41.471,78.339 41.336 C 77.897 41.195,77.617 41.271,77.617 41.531 C 77.617 41.764,77.374 41.861,77.076 41.747 C 76.778 41.632,76.534 41.696,76.534 41.889 C 76.534 42.081,76.219 42.238,75.834 42.238 C 75.448 42.238,75.031 42.403,74.906 42.605 C 74.781 42.807,74.539 42.886,74.368 42.780 C 74.197 42.674,73.948 42.764,73.815 42.979 C 73.682 43.194,73.346 43.283,73.068 43.177 C 72.790 43.070,72.563 43.159,72.563 43.375 C 72.563 43.590,72.238 43.682,71.841 43.578 C 71.444 43.474,71.118 43.496,71.116 43.626 C 71.112 43.991,69.253 44.770,68.902 44.553 C 68.732 44.448,68.592 44.519,68.592 44.710 C 68.592 44.902,68.267 44.974,67.870 44.870 C 67.473 44.766,67.148 44.857,67.148 45.073 C 67.148 45.288,66.904 45.371,66.606 45.257 C 66.309 45.143,66.065 45.229,66.065 45.449 C 66.065 45.669,65.832 45.848,65.547 45.848 C 65.262 45.848,64.572 46.037,64.013 46.267 C 63.454 46.498,62.793 46.653,62.545 46.612 C 62.297 46.572,62.094 46.719,62.094 46.940 C 62.094 47.177,61.798 47.247,61.372 47.112 C 60.930 46.972,60.650 47.047,60.650 47.307 C 60.650 47.540,60.406 47.637,60.108 47.523 C 59.810 47.409,59.567 47.472,59.567 47.665 C 59.567 47.857,59.251 48.014,58.866 48.014 C 58.481 48.014,58.069 48.170,57.952 48.360 C 57.835 48.550,57.500 48.613,57.209 48.502 C 56.917 48.390,56.679 48.495,56.679 48.736 C 56.679 48.978,56.435 49.081,56.137 48.967 C 55.839 48.853,55.596 48.935,55.596 49.151 C 55.596 49.366,55.271 49.458,54.874 49.354 C 54.477 49.250,54.150 49.272,54.149 49.402 C 54.144 49.767,52.285 50.546,51.935 50.330 C 51.764 50.224,51.625 50.329,51.625 50.562 C 51.625 50.809,51.322 50.908,50.903 50.798 C 50.505 50.694,50.181 50.751,50.181 50.925 C 50.181 51.099,49.937 51.147,49.639 51.033 C 49.341 50.919,49.097 51.005,49.097 51.225 C 49.097 51.445,48.864 51.625,48.579 51.625 C 48.295 51.625,47.604 51.813,47.045 52.043 C 46.486 52.274,45.826 52.429,45.578 52.389 C 45.329 52.348,45.126 52.495,45.126 52.716 C 45.126 52.953,44.831 53.023,44.404 52.888 C 44.004 52.761,43.682 52.823,43.682 53.028 C 43.682 53.231,43.114 53.504,42.419 53.634 C 41.724 53.764,41.155 54.026,41.155 54.216 C 41.155 54.406,40.830 54.458,40.433 54.332 C 39.991 54.192,39.711 54.267,39.711 54.527 C 39.711 54.760,39.468 54.857,39.170 54.743 C 38.872 54.629,38.628 54.712,38.628 54.927 C 38.628 55.143,38.303 55.234,37.906 55.130 C 37.509 55.026,37.183 55.048,37.181 55.178 C 37.177 55.543,35.318 56.322,34.967 56.106 C 34.797 56.000,34.657 56.105,34.657 56.338 C 34.657 56.585,34.355 56.684,33.935 56.574 C 33.538 56.470,33.213 56.527,33.213 56.701 C 33.213 56.875,32.969 56.924,32.671 56.809 C 32.374 56.695,32.130 56.781,32.130 57.001 C 32.130 57.221,31.897 57.401,31.612 57.401 C 31.327 57.401,30.637 57.589,30.078 57.820 C 29.519 58.050,28.858 58.205,28.610 58.165 C 28.362 58.124,28.159 58.272,28.159 58.492 C 28.159 58.729,27.863 58.800,27.437 58.664 C 27.036 58.537,26.715 58.599,26.715 58.804 C 26.715 59.007,26.146 59.280,25.451 59.410 C 24.756 59.540,24.188 59.802,24.188 59.992 C 24.188 60.182,23.863 60.234,23.466 60.108 C 23.023 59.968,22.744 60.043,22.744 60.303 C 22.744 60.536,22.500 60.634,22.202 60.519 C 21.904 60.405,21.661 60.469,21.661 60.661 C 21.661 60.853,21.376 61.012,21.029 61.013 C 20.681 61.014,19.933 61.257,19.367 61.553 C 18.800 61.848,18.191 62.000,18.013 61.890 C 17.835 61.780,17.690 61.881,17.690 62.115 C 17.690 62.361,17.387 62.460,16.968 62.350 C 16.570 62.246,16.245 62.326,16.245 62.527 C 16.245 62.729,16.002 62.800,15.704 62.685 C 15.406 62.571,15.162 62.635,15.162 62.827 C 15.162 63.020,14.847 63.177,14.462 63.177 C 14.076 63.177,13.659 63.342,13.534 63.544 C 13.410 63.746,13.168 63.824,12.996 63.718 C 12.825 63.613,12.588 63.684,12.468 63.877 C 12.349 64.070,12.013 64.137,11.721 64.025 C 11.430 63.913,11.191 64.012,11.191 64.246 C 11.191 64.505,10.912 64.581,10.469 64.440 C 10.069 64.313,9.747 64.376,9.747 64.580 C 9.747 64.783,9.179 65.056,8.484 65.186 C 7.789 65.317,7.220 65.579,7.220 65.768 C 7.220 65.958,6.895 66.011,6.498 65.884 C 6.098 65.757,5.776 65.820,5.776 66.024 C 5.776 66.227,5.208 66.500,4.513 66.630 C 3.818 66.761,3.249 67.058,3.249 67.291 C 3.249 67.524,2.759 68.004,2.160 68.358 C 1.561 68.712,1.175 69.171,1.303 69.379 C 1.432 69.586,1.313 69.894,1.039 70.063 C 0.334 70.499,0.288 290.649,0.993 290.884 C 1.241 290.967,1.444 291.258,1.444 291.530 C 1.444 292.172,3.016 293.740,3.960 294.040 C 4.363 294.168,4.693 294.419,4.693 294.598 C 4.693 294.777,4.937 294.830,5.235 294.715 C 5.532 294.601,5.776 294.698,5.776 294.932 C 5.776 295.191,6.056 295.267,6.498 295.126 C 6.895 295.000,7.220 295.053,7.220 295.242 C 7.220 295.432,7.789 295.694,8.484 295.825 C 9.179 295.955,9.747 296.228,9.747 296.431 C 9.747 296.635,10.069 296.698,10.469 296.570 C 10.912 296.430,11.191 296.506,11.191 296.765 C 11.191 296.998,11.430 297.098,11.721 296.986 C 12.013 296.874,12.349 296.940,12.468 297.134 C 12.588 297.327,12.825 297.398,12.996 297.292 C 13.168 297.187,13.410 297.265,13.534 297.467 C 13.659 297.669,14.076 297.834,14.462 297.834 C 14.847 297.834,15.162 297.991,15.162 298.184 C 15.162 298.376,15.406 298.440,15.704 298.325 C 16.002 298.211,16.245 298.282,16.245 298.484 C 16.245 298.685,16.570 298.764,16.968 298.661 C 17.387 298.551,17.690 298.649,17.690 298.896 C 17.690 299.130,17.835 299.231,18.013 299.121 C 18.191 299.011,18.800 299.163,19.367 299.458 C 19.933 299.754,20.681 299.997,21.029 299.998 C 21.376 299.999,21.661 300.157,21.661 300.350 C 21.661 300.542,21.904 300.606,22.202 300.492 C 22.500 300.377,22.744 300.475,22.744 300.708 C 22.744 300.967,23.023 301.043,23.466 300.903 C 23.863 300.776,24.188 300.829,24.188 301.019 C 24.188 301.208,24.756 301.470,25.451 301.601 C 26.146 301.731,26.715 302.004,26.715 302.207 C 26.715 302.411,27.036 302.474,27.437 302.347 C 27.879 302.206,28.159 302.282,28.159 302.541 C 28.159 302.775,28.397 302.874,28.689 302.762 C 28.980 302.650,29.305 302.698,29.410 302.868 C 29.515 303.038,30.413 303.372,31.407 303.610 C 32.400 303.848,33.213 304.174,33.213 304.334 C 33.213 304.495,33.538 304.541,33.935 304.437 C 34.355 304.327,34.657 304.426,34.657 304.672 C 34.657 304.906,34.797 305.010,34.967 304.905 C 35.318 304.689,37.177 305.468,37.181 305.833 C 37.183 305.963,37.509 305.985,37.906 305.881 C 38.303 305.777,38.628 305.868,38.628 306.084 C 38.628 306.299,38.872 306.382,39.170 306.268 C 39.468 306.153,39.711 306.251,39.711 306.484 C 39.711 306.744,39.991 306.819,40.433 306.679 C 40.830 306.553,41.155 306.605,41.155 306.795 C 41.155 306.985,41.724 307.247,42.419 307.377 C 43.114 307.507,43.682 307.780,43.682 307.983 C 43.682 308.188,44.004 308.250,44.404 308.123 C 44.831 307.987,45.126 308.058,45.126 308.295 C 45.126 308.515,45.329 308.663,45.578 308.622 C 45.826 308.582,46.486 308.737,47.045 308.967 C 47.604 309.198,48.295 309.386,48.579 309.386 C 48.864 309.386,49.097 309.566,49.097 309.786 C 49.097 310.006,49.341 310.092,49.639 309.978 C 49.937 309.863,50.181 309.912,50.181 310.086 C 50.181 310.260,50.505 310.317,50.903 310.213 C 51.322 310.103,51.625 310.202,51.625 310.449 C 51.625 310.682,51.764 310.787,51.935 310.681 C 52.285 310.465,54.144 311.244,54.149 311.609 C 54.150 311.739,54.477 311.761,54.874 311.657 C 55.271 311.553,55.596 311.644,55.596 311.860 C 55.596 312.075,55.839 312.158,56.137 312.044 C 56.435 311.930,56.679 312.033,56.679 312.274 C 56.679 312.515,56.917 312.621,57.209 312.509 C 57.500 312.397,57.835 312.461,57.952 312.651 C 58.069 312.841,58.481 312.996,58.866 312.996 C 59.251 312.996,59.567 313.154,59.567 313.346 C 59.567 313.538,59.810 313.602,60.108 313.488 C 60.406 313.374,60.650 313.471,60.650 313.704 C 60.650 313.964,60.930 314.039,61.372 313.899 C 61.798 313.764,62.094 313.834,62.094 314.071 C 62.094 314.292,62.297 314.439,62.545 314.398 C 62.793 314.358,63.454 314.513,64.013 314.744 C 64.572 314.974,65.262 315.162,65.547 315.162 C 65.832 315.162,66.065 315.342,66.065 315.562 C 66.065 315.782,66.298 315.872,66.583 315.763 C 66.868 315.654,67.152 315.716,67.215 315.902 C 67.277 316.088,67.816 316.303,68.412 316.379 C 69.915 316.572,71.119 316.998,71.119 317.337 C 71.119 317.494,71.444 317.537,71.841 317.433 C 72.238 317.329,72.563 317.421,72.563 317.636 C 72.563 317.852,72.790 317.941,73.068 317.834 C 73.346 317.728,73.682 317.816,73.815 318.032 C 73.948 318.247,74.197 318.337,74.368 318.231 C 74.539 318.125,74.781 318.204,74.906 318.406 C 75.031 318.607,75.448 318.773,75.834 318.773 C 76.219 318.773,76.534 318.930,76.534 319.122 C 76.534 319.315,76.778 319.378,77.076 319.264 C 77.374 319.150,77.617 319.247,77.617 319.480 C 77.617 319.740,77.897 319.815,78.339 319.675 C 78.766 319.540,79.061 319.610,79.061 319.847 C 79.061 320.068,79.264 320.224,79.513 320.193 C 80.347 320.092,81.583 320.656,81.350 321.032 C 81.201 321.273,81.457 321.320,82.076 321.165 C 82.687 321.012,83.032 321.072,83.032 321.331 C 83.032 321.555,83.276 321.644,83.574 321.530 C 83.872 321.416,84.116 321.499,84.116 321.714 C 84.116 321.930,84.440 322.021,84.838 321.917 C 85.235 321.813,85.560 321.857,85.560 322.015 C 85.560 322.173,86.128 322.409,86.823 322.539 C 87.518 322.670,88.087 322.916,88.087 323.087 C 88.087 323.258,88.412 323.313,88.809 323.209 C 89.206 323.105,89.531 323.197,89.531 323.412 C 89.531 323.628,89.758 323.717,90.036 323.610 C 90.313 323.504,90.650 323.593,90.783 323.808 C 90.916 324.023,91.165 324.113,91.336 324.007 C 91.507 323.901,91.749 323.980,91.874 324.182 C 91.998 324.384,92.416 324.549,92.801 324.549 C 93.186 324.549,93.502 324.706,93.502 324.898 C 93.502 325.091,93.745 325.155,94.043 325.040 C 94.341 324.926,94.585 325.023,94.585 325.256 C 94.585 325.516,94.865 325.592,95.307 325.451 C 95.749 325.311,96.029 325.386,96.029 325.646 C 96.029 325.879,96.273 325.977,96.570 325.862 C 96.868 325.748,97.112 325.812,97.112 326.004 C 97.112 326.196,97.437 326.354,97.834 326.354 C 98.231 326.354,98.556 326.527,98.556 326.739 C 98.556 326.960,98.864 327.027,99.278 326.895 C 99.720 326.755,100.000 326.830,100.000 327.090 C 100.000 327.323,100.244 327.421,100.542 327.306 C 100.839 327.192,101.083 327.230,101.083 327.391 C 101.083 327.551,101.977 327.883,103.069 328.127 C 104.161 328.372,105.054 328.707,105.054 328.873 C 105.054 329.039,105.379 329.089,105.776 328.985 C 106.173 328.882,106.498 328.973,106.498 329.188 C 106.498 329.404,106.725 329.493,107.003 329.386 C 107.281 329.280,107.617 329.369,107.750 329.584 C 107.883 329.799,108.132 329.889,108.303 329.783 C 108.474 329.678,108.716 329.756,108.841 329.958 C 108.966 330.160,109.383 330.325,109.769 330.325 C 110.154 330.325,110.469 330.482,110.469 330.675 C 110.469 330.867,110.713 330.931,111.011 330.816 C 111.309 330.702,111.552 330.799,111.552 331.033 C 111.552 331.292,111.832 331.368,112.274 331.227 C 112.701 331.092,112.996 331.163,112.996 331.399 C 112.996 331.620,113.199 331.776,113.448 331.746 C 114.175 331.657,115.523 332.184,115.523 332.557 C 115.523 332.746,115.848 332.798,116.245 332.671 C 116.650 332.543,116.968 332.607,116.968 332.816 C 116.968 333.022,117.211 333.097,117.509 332.983 C 117.807 332.868,118.051 332.940,118.051 333.143 C 118.051 333.345,118.700 333.620,119.495 333.755 C 120.289 333.889,120.939 334.142,120.939 334.316 C 120.939 334.491,121.182 334.541,121.480 334.427 C 121.778 334.312,122.022 334.410,122.022 334.643 C 122.022 334.902,122.301 334.978,122.744 334.838 C 123.141 334.712,123.466 334.756,123.466 334.936 C 123.466 335.116,124.359 335.478,125.451 335.740 C 126.543 336.002,127.437 336.348,127.437 336.508 C 127.437 336.669,127.681 336.707,127.978 336.593 C 128.276 336.478,128.520 336.576,128.520 336.809 C 128.520 337.068,128.800 337.144,129.242 337.004 C 129.668 336.868,129.964 336.939,129.964 337.176 C 129.964 337.396,130.167 337.552,130.415 337.522 C 131.089 337.440,132.491 337.949,132.491 338.275 C 132.491 338.432,132.816 338.476,133.213 338.372 C 133.610 338.268,133.935 338.359,133.935 338.575 C 133.935 338.790,134.179 338.873,134.477 338.759 C 134.774 338.644,135.018 338.716,135.018 338.919 C 135.018 339.121,135.668 339.397,136.462 339.531 C 137.256 339.665,137.906 339.918,137.906 340.093 C 137.906 340.267,138.150 340.317,138.448 340.203 C 138.745 340.088,138.989 340.186,138.989 340.419 C 138.989 340.679,139.269 340.754,139.711 340.614 C 140.108 340.488,140.433 340.540,140.433 340.730 C 140.433 340.920,141.002 341.182,141.697 341.312 C 142.392 341.442,142.960 341.677,142.960 341.833 C 142.960 341.990,143.479 342.118,144.114 342.118 C 144.748 342.118,145.330 342.308,145.408 342.541 C 145.486 342.774,145.705 342.869,145.895 342.751 C 146.085 342.633,146.437 342.695,146.676 342.888 C 146.916 343.080,147.640 343.351,148.285 343.489 C 148.931 343.627,149.458 343.874,149.458 344.038 C 149.458 344.202,149.783 344.252,150.181 344.148 C 150.578 344.044,150.903 344.135,150.903 344.351 C 150.903 344.566,151.146 344.649,151.444 344.535 C 151.742 344.420,151.986 344.524,151.986 344.765 C 151.986 345.006,152.224 345.112,152.516 345.000 C 152.807 344.888,153.141 344.952,153.259 345.142 C 153.376 345.332,153.788 345.487,154.173 345.487 C 154.558 345.487,154.874 345.645,154.874 345.837 C 154.874 346.029,155.117 346.093,155.415 345.979 C 155.713 345.865,155.957 345.962,155.957 346.195 C 155.957 346.455,156.236 346.530,156.679 346.390 C 157.076 346.264,157.401 346.316,157.401 346.506 C 157.401 346.696,157.969 346.958,158.664 347.088 C 159.359 347.218,159.928 347.491,159.928 347.694 C 159.928 347.899,160.249 347.961,160.650 347.834 C 161.092 347.694,161.372 347.769,161.372 348.029 C 161.372 348.262,161.616 348.359,161.913 348.245 C 162.211 348.131,162.455 348.204,162.455 348.408 C 162.455 348.612,162.624 348.674,162.832 348.546 C 163.039 348.418,163.404 348.471,163.644 348.664 C 163.883 348.856,164.607 349.127,165.253 349.265 C 165.898 349.403,166.426 349.650,166.426 349.814 C 166.426 349.979,166.751 350.028,167.148 349.924 C 167.568 349.814,167.870 349.913,167.870 350.160 C 167.870 350.393,168.016 350.494,168.193 350.384 C 168.371 350.274,168.981 350.426,169.547 350.722 C 170.114 351.017,170.862 351.260,171.209 351.261 C 171.557 351.263,171.841 351.421,171.841 351.613 C 171.841 351.806,172.085 351.869,172.383 351.755 C 172.681 351.641,172.924 351.738,172.924 351.971 C 172.924 352.231,173.204 352.306,173.646 352.166 C 174.073 352.031,174.368 352.101,174.368 352.338 C 174.368 352.559,174.571 352.714,174.819 352.684 C 175.547 352.596,176.895 353.123,176.895 353.496 C 176.895 353.685,177.220 353.736,177.617 353.610 C 178.060 353.470,178.339 353.545,178.339 353.805 C 178.339 354.038,178.583 354.135,178.881 354.021 C 179.179 353.907,179.422 353.956,179.422 354.131 C 179.422 354.306,180.072 354.559,180.866 354.693 C 181.661 354.827,182.310 355.103,182.310 355.305 C 182.310 355.507,182.554 355.579,182.852 355.465 C 183.150 355.351,183.394 355.399,183.394 355.573 C 183.394 355.747,183.718 355.804,184.116 355.700 C 184.535 355.591,184.838 355.689,184.838 355.936 C 184.838 356.169,185.007 356.256,185.214 356.127 C 185.422 355.999,185.787 356.057,186.027 356.256 C 186.266 356.455,186.625 356.672,186.823 356.738 C 187.022 356.805,187.142 356.984,187.091 357.137 C 187.040 357.291,187.406 357.314,187.904 357.189 C 188.450 357.051,188.809 357.115,188.809 357.350 C 188.809 357.564,189.052 357.646,189.350 357.531 C 189.648 357.417,189.892 357.520,189.892 357.762 C 189.892 358.003,190.130 358.108,190.422 357.997 C 190.713 357.885,191.050 357.953,191.171 358.148 C 191.292 358.343,191.581 358.481,191.814 358.454 C 192.524 358.373,193.863 358.907,193.863 359.272 C 193.863 359.461,194.188 359.512,194.585 359.386 C 195.027 359.246,195.307 359.321,195.307 359.581 C 195.307 359.814,195.540 359.916,195.825 359.806 C 196.110 359.697,196.408 359.801,196.487 360.038 C 196.687 360.639,203.313 360.639,203.513 360.038 C 203.592 359.801,203.890 359.697,204.175 359.806 C 204.460 359.916,204.693 359.814,204.693 359.581 C 204.693 359.321,204.973 359.246,205.415 359.386 C 205.829 359.518,206.137 359.451,206.137 359.230 C 206.137 359.018,206.370 358.845,206.655 358.845 C 206.940 358.845,207.631 358.656,208.189 358.426 C 208.748 358.195,209.409 358.040,209.657 358.081 C 209.905 358.121,210.108 357.967,210.108 357.739 C 210.108 357.510,210.352 357.417,210.650 357.531 C 210.948 357.646,211.191 357.564,211.191 357.350 C 211.191 357.115,211.550 357.051,212.096 357.189 C 212.594 357.314,212.960 357.291,212.909 357.137 C 212.858 356.984,212.913 356.859,213.031 356.859 C 213.150 356.859,213.508 356.642,213.828 356.377 C 214.147 356.112,214.578 355.999,214.786 356.127 C 214.993 356.256,215.162 356.169,215.162 355.936 C 215.162 355.689,215.465 355.591,215.884 355.700 C 216.282 355.804,216.606 355.747,216.606 355.573 C 216.606 355.399,216.850 355.351,217.148 355.465 C 217.446 355.579,217.690 355.507,217.690 355.305 C 217.690 355.103,218.339 354.827,219.134 354.693 C 219.928 354.559,220.578 354.306,220.578 354.131 C 220.578 353.956,220.821 353.907,221.119 354.021 C 221.417 354.135,221.661 354.038,221.661 353.805 C 221.661 353.545,221.940 353.470,222.383 353.610 C 222.780 353.736,223.105 353.685,223.105 353.496 C 223.105 353.131,224.444 352.596,225.153 352.678 C 225.387 352.705,225.676 352.567,225.797 352.372 C 225.917 352.177,226.254 352.109,226.546 352.220 C 226.837 352.332,227.076 352.227,227.076 351.986 C 227.076 351.744,227.319 351.641,227.617 351.755 C 227.915 351.869,228.159 351.806,228.159 351.613 C 228.159 351.421,228.443 351.263,228.791 351.261 C 229.138 351.260,229.886 351.017,230.453 350.722 C 231.019 350.426,231.629 350.274,231.807 350.384 C 231.984 350.494,232.130 350.393,232.130 350.160 C 232.130 349.913,232.432 349.814,232.852 349.924 C 233.249 350.028,233.574 349.979,233.574 349.814 C 233.574 349.650,234.102 349.403,234.747 349.265 C 235.393 349.127,236.117 348.856,236.356 348.664 C 236.596 348.471,236.947 348.410,237.137 348.527 C 237.328 348.645,237.547 348.550,237.625 348.318 C 237.702 348.085,238.285 347.894,238.919 347.894 C 239.553 347.894,240.072 347.766,240.072 347.610 C 240.072 347.453,240.641 347.218,241.336 347.088 C 242.031 346.958,242.599 346.696,242.599 346.506 C 242.599 346.316,242.924 346.264,243.321 346.390 C 243.764 346.530,244.043 346.455,244.043 346.195 C 244.043 345.962,244.287 345.865,244.585 345.979 C 244.883 346.093,245.126 346.044,245.126 345.869 C 245.126 345.694,245.776 345.441,246.570 345.307 C 247.365 345.173,248.014 344.897,248.014 344.695 C 248.014 344.493,248.258 344.421,248.556 344.535 C 248.854 344.649,249.097 344.566,249.097 344.351 C 249.097 344.135,249.422 344.044,249.819 344.148 C 250.217 344.252,250.542 344.202,250.542 344.038 C 250.542 343.874,251.069 343.627,251.715 343.489 C 252.360 343.351,253.084 343.080,253.324 342.888 C 253.563 342.695,253.915 342.633,254.105 342.751 C 254.295 342.869,254.514 342.774,254.592 342.541 C 254.670 342.308,255.252 342.118,255.886 342.118 C 256.521 342.118,257.040 341.990,257.040 341.833 C 257.040 341.677,257.608 341.442,258.303 341.312 C 258.998 341.182,259.567 340.920,259.567 340.730 C 259.567 340.540,259.892 340.488,260.289 340.614 C 260.731 340.754,261.011 340.679,261.011 340.419 C 261.011 340.186,261.255 340.088,261.552 340.203 C 261.850 340.317,262.094 340.267,262.094 340.093 C 262.094 339.918,262.744 339.665,263.538 339.531 C 264.332 339.397,264.982 339.121,264.982 338.919 C 264.982 338.716,265.226 338.644,265.523 338.759 C 265.821 338.873,266.065 338.790,266.065 338.575 C 266.065 338.359,266.390 338.268,266.787 338.372 C 267.184 338.476,267.509 338.432,267.509 338.275 C 267.509 337.957,268.902 337.440,269.558 337.516 C 269.791 337.542,270.080 337.405,270.201 337.209 C 270.322 337.014,270.659 336.946,270.950 337.058 C 271.242 337.170,271.480 337.064,271.480 336.823 C 271.480 336.582,271.724 336.478,272.022 336.593 C 272.319 336.707,272.563 336.643,272.563 336.451 C 272.563 336.258,272.861 336.101,273.225 336.101 C 273.589 336.101,274.001 335.987,274.141 335.847 C 274.281 335.707,274.833 335.534,275.368 335.462 C 275.903 335.391,276.438 335.175,276.556 334.982 C 276.675 334.790,277.044 334.737,277.375 334.864 C 277.728 334.999,277.978 334.919,277.978 334.671 C 277.978 334.403,278.261 334.337,278.746 334.491 C 279.228 334.644,279.428 334.598,279.286 334.367 C 279.153 334.152,279.661 333.897,280.504 333.755 C 281.299 333.620,281.949 333.345,281.949 333.143 C 281.949 332.940,282.193 332.868,282.491 332.983 C 282.789 333.097,283.032 333.022,283.032 332.816 C 283.032 332.607,283.350 332.543,283.755 332.671 C 284.152 332.798,284.477 332.746,284.477 332.557 C 284.477 332.184,285.825 331.657,286.552 331.746 C 286.801 331.776,287.004 331.620,287.004 331.399 C 287.004 331.163,287.299 331.092,287.726 331.227 C 288.168 331.368,288.448 331.292,288.448 331.033 C 288.448 330.799,288.691 330.702,288.989 330.816 C 289.287 330.931,289.531 330.867,289.531 330.675 C 289.531 330.482,289.846 330.325,290.231 330.325 C 290.617 330.325,291.034 330.160,291.159 329.958 C 291.284 329.756,291.526 329.678,291.697 329.783 C 291.868 329.889,292.117 329.799,292.250 329.584 C 292.383 329.369,292.719 329.280,292.997 329.386 C 293.275 329.493,293.502 329.404,293.502 329.188 C 293.502 328.973,293.827 328.882,294.224 328.985 C 294.621 329.089,294.946 329.039,294.946 328.873 C 294.946 328.707,295.839 328.372,296.931 328.127 C 298.023 327.883,298.917 327.551,298.917 327.391 C 298.917 327.230,299.161 327.192,299.458 327.306 C 299.756 327.421,300.000 327.323,300.000 327.090 C 300.000 326.830,300.280 326.755,300.722 326.895 C 301.136 327.027,301.444 326.960,301.444 326.739 C 301.444 326.527,301.769 326.354,302.166 326.354 C 302.563 326.354,302.888 326.196,302.888 326.004 C 302.888 325.812,303.132 325.748,303.430 325.862 C 303.727 325.977,303.971 325.879,303.971 325.646 C 303.971 325.386,304.251 325.311,304.693 325.451 C 305.135 325.592,305.415 325.516,305.415 325.256 C 305.415 325.023,305.659 324.926,305.957 325.040 C 306.255 325.155,306.498 325.091,306.498 324.898 C 306.498 324.706,306.814 324.549,307.199 324.549 C 307.584 324.549,308.002 324.384,308.126 324.182 C 308.251 323.980,308.493 323.901,308.664 324.007 C 308.835 324.113,309.084 324.023,309.217 323.808 C 309.350 323.593,309.687 323.504,309.964 323.610 C 310.242 323.717,310.469 323.628,310.469 323.412 C 310.469 323.197,310.794 323.105,311.191 323.209 C 311.588 323.313,311.913 323.258,311.913 323.087 C 311.913 322.916,312.482 322.670,313.177 322.539 C 313.872 322.409,314.440 322.173,314.440 322.015 C 314.440 321.857,314.765 321.813,315.162 321.917 C 315.560 322.021,315.884 321.930,315.884 321.714 C 315.884 321.499,316.128 321.416,316.426 321.530 C 316.724 321.644,316.968 321.555,316.968 321.331 C 316.968 321.072,317.313 321.012,317.924 321.165 C 318.543 321.320,318.799 321.273,318.650 321.032 C 318.417 320.656,319.653 320.092,320.487 320.193 C 320.736 320.224,320.939 320.068,320.939 319.847 C 320.939 319.610,321.234 319.540,321.661 319.675 C 322.103 319.815,322.383 319.740,322.383 319.480 C 322.383 319.247,322.626 319.150,322.924 319.264 C 323.222 319.378,323.466 319.315,323.466 319.122 C 323.466 318.930,323.781 318.773,324.166 318.773 C 324.552 318.773,324.969 318.607,325.094 318.406 C 325.219 318.204,325.461 318.125,325.632 318.231 C 325.803 318.337,326.052 318.247,326.185 318.032 C 326.318 317.816,326.654 317.728,326.932 317.834 C 327.210 317.941,327.437 317.852,327.437 317.636 C 327.437 317.421,327.762 317.329,328.159 317.433 C 328.556 317.537,328.881 317.494,328.881 317.337 C 328.881 316.998,330.085 316.572,331.588 316.379 C 332.184 316.303,332.723 316.088,332.785 315.902 C 332.848 315.716,333.132 315.654,333.417 315.763 C 333.702 315.872,333.935 315.782,333.935 315.562 C 333.935 315.342,334.168 315.162,334.453 315.162 C 334.738 315.162,335.428 314.974,335.987 314.744 C 336.546 314.513,337.207 314.358,337.455 314.398 C 337.703 314.439,337.906 314.292,337.906 314.071 C 337.906 313.834,338.202 313.764,338.628 313.899 C 339.070 314.039,339.350 313.964,339.350 313.704 C 339.350 313.471,339.594 313.374,339.892 313.488 C 340.190 313.602,340.433 313.538,340.433 313.346 C 340.433 313.154,340.749 312.996,341.134 312.996 C 341.519 312.996,341.931 312.841,342.048 312.651 C 342.165 312.461,342.500 312.397,342.791 312.509 C 343.083 312.621,343.321 312.515,343.321 312.274 C 343.321 312.033,343.565 311.930,343.863 312.044 C 344.161 312.158,344.404 312.075,344.404 311.860 C 344.404 311.644,344.729 311.553,345.126 311.657 C 345.523 311.761,345.850 311.739,345.851 311.609 C 345.856 311.244,347.715 310.465,348.065 310.681 C 348.236 310.787,348.375 310.682,348.375 310.449 C 348.375 310.202,348.678 310.103,349.097 310.213 C 349.495 310.317,349.819 310.260,349.819 310.086 C 349.819 309.912,350.063 309.863,350.361 309.978 C 350.659 310.092,350.903 310.006,350.903 309.786 C 350.903 309.566,351.136 309.386,351.421 309.386 C 351.705 309.386,352.396 309.198,352.955 308.967 C 353.514 308.737,354.174 308.582,354.422 308.622 C 354.671 308.663,354.874 308.515,354.874 308.295 C 354.874 308.058,355.169 307.987,355.596 308.123 C 355.996 308.250,356.318 308.188,356.318 307.983 C 356.318 307.780,356.886 307.507,357.581 307.377 C 358.276 307.247,358.845 306.985,358.845 306.795 C 358.845 306.605,359.170 306.553,359.567 306.679 C 360.009 306.819,360.289 306.744,360.289 306.484 C 360.289 306.251,360.532 306.153,360.830 306.268 C 361.128 306.382,361.372 306.299,361.372 306.084 C 361.372 305.868,361.697 305.777,362.094 305.881 C 362.491 305.985,362.817 305.963,362.819 305.833 C 362.823 305.468,364.682 304.689,365.033 304.905 C 365.203 305.010,365.343 304.906,365.343 304.672 C 365.343 304.426,365.645 304.327,366.065 304.437 C 366.462 304.541,366.787 304.495,366.787 304.334 C 366.787 304.174,367.600 303.848,368.593 303.610 C 369.587 303.372,370.485 303.038,370.590 302.868 C 370.695 302.698,371.020 302.650,371.311 302.762 C 371.603 302.874,371.841 302.775,371.841 302.541 C 371.841 302.282,372.121 302.206,372.563 302.347 C 372.964 302.474,373.285 302.411,373.285 302.207 C 373.285 302.004,373.854 301.731,374.549 301.601 C 375.244 301.470,375.812 301.208,375.812 301.019 C 375.812 300.829,376.137 300.776,376.534 300.903 C 376.977 301.043,377.256 300.967,377.256 300.708 C 377.256 300.475,377.500 300.377,377.798 300.492 C 378.096 300.606,378.339 300.542,378.339 300.350 C 378.339 300.157,378.624 299.999,378.971 299.998 C 379.319 299.997,380.067 299.754,380.633 299.458 C 381.200 299.163,381.809 299.011,381.987 299.121 C 382.165 299.231,382.310 299.130,382.310 298.896 C 382.310 298.649,382.613 298.551,383.032 298.661 C 383.430 298.764,383.755 298.685,383.755 298.484 C 383.755 298.282,383.998 298.211,384.296 298.325 C 384.594 298.440,384.838 298.376,384.838 298.184 C 384.838 297.991,385.153 297.834,385.538 297.834 C 385.924 297.834,386.341 297.669,386.466 297.467 C 386.590 297.265,386.832 297.187,387.004 297.292 C 387.175 297.398,387.412 297.327,387.532 297.134 C 387.651 296.940,387.987 296.874,388.279 296.986 C 388.570 297.098,388.809 296.998,388.809 296.765 C 388.809 296.506,389.088 296.430,389.531 296.570 C 389.931 296.698,390.253 296.635,390.253 296.431 C 390.253 296.228,390.821 295.955,391.516 295.825 C 392.211 295.694,392.780 295.432,392.780 295.242 C 392.780 295.053,393.105 295.000,393.502 295.126 C 393.944 295.267,394.224 295.191,394.224 294.932 C 394.224 294.698,394.468 294.601,394.765 294.715 C 395.063 294.830,395.307 294.769,395.307 294.580 C 395.307 294.392,395.713 294.136,396.209 294.011 C 396.706 293.886,397.112 293.569,397.112 293.306 C 397.112 293.044,397.437 292.725,397.834 292.599 C 398.231 292.473,398.556 292.070,398.556 291.703 C 398.556 291.335,398.759 290.967,399.007 290.884 C 399.712 290.649,399.666 70.499,398.961 70.063 C 398.687 69.894,398.568 69.586,398.697 69.379 C 398.825 69.171,398.439 68.712,397.840 68.358 C 397.241 68.004,396.751 67.506,396.751 67.251 C 396.751 66.996,396.426 66.787,396.029 66.787 C 395.632 66.787,395.307 66.630,395.307 66.437 C 395.307 66.245,395.063 66.181,394.765 66.295 C 394.468 66.410,394.224 66.312,394.224 66.079 C 394.224 65.820,393.944 65.744,393.502 65.884 C 393.088 66.016,392.780 65.949,392.780 65.728 C 392.780 65.516,392.547 65.343,392.262 65.343 C 391.977 65.343,391.286 65.154,390.727 64.924 C 390.169 64.694,389.508 64.538,389.260 64.579 C 389.012 64.619,388.809 64.466,388.809 64.237 C 388.809 64.009,388.585 63.907,388.312 64.012 C 388.039 64.117,387.371 63.972,386.827 63.690 C 386.283 63.408,385.613 63.177,385.338 63.177 C 385.063 63.177,384.838 63.020,384.838 62.827 C 384.838 62.635,384.594 62.571,384.296 62.685 C 383.998 62.800,383.755 62.729,383.755 62.527 C 383.755 62.326,383.430 62.246,383.032 62.350 C 382.613 62.460,382.310 62.361,382.310 62.115 C 382.310 61.881,382.165 61.780,381.987 61.890 C 381.809 62.000,381.200 61.848,380.633 61.553 C 380.067 61.257,379.319 61.014,378.971 61.013 C 378.624 61.012,378.339 60.853,378.339 60.661 C 378.339 60.469,378.112 60.399,377.834 60.505 C 377.557 60.612,377.226 60.533,377.101 60.329 C 376.975 60.126,376.634 60.051,376.342 60.163 C 376.051 60.275,375.812 60.204,375.812 60.007 C 375.812 59.809,375.244 59.540,374.549 59.410 C 373.854 59.280,373.285 59.007,373.285 58.804 C 373.285 58.599,372.964 58.537,372.563 58.664 C 372.137 58.800,371.841 58.729,371.841 58.492 C 371.841 58.272,371.638 58.124,371.390 58.165 C 371.142 58.205,370.481 58.050,369.922 57.820 C 369.363 57.589,368.673 57.401,368.388 57.401 C 368.103 57.401,367.870 57.221,367.870 57.001 C 367.870 56.781,367.626 56.695,367.329 56.809 C 367.031 56.924,366.787 56.875,366.787 56.701 C 366.787 56.527,366.462 56.470,366.065 56.574 C 365.645 56.684,365.343 56.585,365.343 56.338 C 365.343 56.105,365.203 56.000,365.033 56.106 C 364.682 56.322,362.823 55.543,362.819 55.178 C 362.817 55.048,362.491 55.026,362.094 55.130 C 361.697 55.234,361.372 55.143,361.372 54.927 C 361.372 54.712,361.128 54.629,360.830 54.743 C 360.532 54.857,360.289 54.760,360.289 54.527 C 360.289 54.267,360.009 54.192,359.567 54.332 C 359.170 54.458,358.845 54.406,358.845 54.216 C 358.845 54.026,358.276 53.764,357.581 53.634 C 356.886 53.504,356.318 53.231,356.318 53.028 C 356.318 52.823,355.996 52.761,355.596 52.888 C 355.169 53.023,354.874 52.953,354.874 52.716 C 354.874 52.495,354.671 52.348,354.422 52.389 C 354.174 52.429,353.514 52.274,352.955 52.043 C 352.396 51.813,351.705 51.625,351.421 51.625 C 351.136 51.625,350.903 51.445,350.903 51.225 C 350.903 51.005,350.659 50.919,350.361 51.033 C 350.063 51.147,349.819 51.065,349.819 50.849 C 349.819 50.634,349.495 50.542,349.097 50.646 C 348.700 50.750,348.375 50.678,348.375 50.486 C 348.375 50.295,348.236 50.224,348.065 50.330 C 347.715 50.546,345.856 49.767,345.851 49.402 C 345.850 49.272,345.523 49.250,345.126 49.354 C 344.729 49.458,344.404 49.366,344.404 49.151 C 344.404 48.935,344.177 48.846,343.899 48.953 C 343.622 49.059,343.285 48.971,343.152 48.755 C 343.019 48.540,342.770 48.450,342.599 48.556 C 342.428 48.662,342.186 48.583,342.061 48.381 C 341.937 48.180,341.519 48.014,341.134 48.014 C 340.749 48.014,340.433 47.857,340.433 47.665 C 340.433 47.472,340.190 47.409,339.892 47.523 C 339.594 47.637,339.350 47.540,339.350 47.307 C 339.350 47.047,339.070 46.972,338.628 47.112 C 338.202 47.247,337.906 47.177,337.906 46.940 C 337.906 46.719,337.703 46.572,337.455 46.612 C 337.207 46.653,336.546 46.498,335.987 46.267 C 335.428 46.037,334.738 45.848,334.453 45.848 C 334.168 45.848,333.935 45.669,333.935 45.449 C 333.935 45.229,333.691 45.143,333.394 45.257 C 333.096 45.371,332.852 45.288,332.852 45.073 C 332.852 44.857,332.527 44.766,332.130 44.870 C 331.733 44.974,331.408 44.902,331.408 44.710 C 331.408 44.519,331.268 44.448,331.098 44.553 C 330.747 44.770,328.888 43.991,328.884 43.626 C 328.882 43.496,328.556 43.474,328.159 43.578 C 327.762 43.682,327.437 43.590,327.437 43.375 C 327.437 43.159,327.210 43.070,326.932 43.177 C 326.654 43.283,326.318 43.194,326.185 42.979 C 326.052 42.764,325.803 42.674,325.632 42.780 C 325.461 42.886,325.219 42.807,325.094 42.605 C 324.969 42.403,324.552 42.238,324.166 42.238 C 323.781 42.238,323.466 42.081,323.466 41.889 C 323.466 41.696,323.238 41.626,322.961 41.733 C 322.683 41.839,322.353 41.760,322.227 41.557 C 322.101 41.353,321.760 41.278,321.469 41.390 C 321.177 41.502,320.939 41.407,320.939 41.178 C 320.939 40.950,320.736 40.787,320.487 40.818 C 319.653 40.919,318.417 40.355,318.650 39.979 C 318.799 39.737,318.543 39.691,317.924 39.846 C 317.313 39.999,316.968 39.939,316.968 39.679 C 316.968 39.456,316.729 39.364,316.438 39.476 C 316.146 39.588,315.805 39.513,315.679 39.310 C 315.553 39.106,315.223 39.027,314.945 39.134 C 314.668 39.240,314.440 39.184,314.440 39.010 C 314.440 38.835,313.790 38.582,312.995 38.447 C 312.200 38.313,311.631 38.070,311.732 37.908 C 311.832 37.745,311.589 37.697,311.192 37.801 C 310.794 37.905,310.469 37.814,310.469 37.599 C 310.469 37.383,310.242 37.294,309.964 37.401 C 309.687 37.507,309.350 37.418,309.217 37.203 C 309.084 36.988,308.835 36.898,308.664 37.004 C 308.493 37.109,308.251 37.031,308.126 36.829 C 308.002 36.627,307.584 36.462,307.199 36.462 C 306.814 36.462,306.498 36.305,306.498 36.112 C 306.498 35.920,306.255 35.856,305.957 35.971 C 305.659 36.085,305.415 35.988,305.415 35.754 C 305.415 35.495,305.135 35.419,304.693 35.560 C 304.267 35.695,303.971 35.624,303.971 35.388 C 303.971 35.167,303.768 35.011,303.520 35.041 C 302.793 35.130,301.444 34.603,301.444 34.230 C 301.444 34.041,301.119 33.989,300.722 34.116 C 300.280 34.256,300.000 34.180,300.000 33.921 C 300.000 33.688,299.756 33.590,299.458 33.705 C 299.161 33.819,298.917 33.736,298.917 33.521 C 298.917 33.305,298.592 33.214,298.195 33.318 C 297.798 33.421,297.473 33.377,297.473 33.219 C 297.473 33.062,296.904 32.826,296.209 32.695 C 295.514 32.565,294.946 32.292,294.946 32.089 C 294.946 31.885,294.624 31.822,294.224 31.949 C 293.819 32.078,293.502 32.014,293.502 31.805 C 293.502 31.599,293.275 31.518,292.997 31.624 C 292.719 31.731,292.383 31.642,292.250 31.427 C 292.117 31.211,291.868 31.122,291.697 31.227 C 291.526 31.333,291.284 31.255,291.159 31.053 C 291.034 30.851,290.617 30.686,290.231 30.686 C 289.846 30.686,289.531 30.529,289.531 30.336 C 289.531 30.144,289.287 30.080,288.989 30.194 C 288.691 30.309,288.448 30.211,288.448 29.978 C 288.448 29.719,288.168 29.643,287.726 29.783 C 287.299 29.919,287.004 29.848,287.004 29.611 C 287.004 29.391,286.801 29.235,286.552 29.265 C 285.879 29.347,284.477 28.838,284.477 28.512 C 284.477 28.355,284.152 28.311,283.755 28.415 C 283.357 28.519,283.032 28.428,283.032 28.212 C 283.032 27.997,282.789 27.914,282.491 28.028 C 282.193 28.143,281.949 28.071,281.949 27.868 C 281.949 27.666,281.300 27.391,280.505 27.256 C 279.711 27.122,279.061 26.869,279.061 26.694 C 279.061 26.520,278.818 26.470,278.520 26.584 C 278.222 26.699,277.978 26.601,277.978 26.368 C 277.978 26.108,277.699 26.033,277.256 26.173 C 276.859 26.299,276.534 26.255,276.534 26.075 C 276.534 25.895,275.641 25.533,274.549 25.271 C 273.457 25.009,272.563 24.663,272.563 24.502 C 272.563 24.342,272.319 24.304,272.022 24.418 C 271.724 24.532,271.480 24.461,271.480 24.260 C 271.480 24.059,271.155 23.979,270.758 24.083 C 270.342 24.192,270.036 24.094,270.036 23.853 C 270.036 23.623,269.833 23.459,269.585 23.489 C 268.911 23.571,267.509 23.062,267.509 22.735 C 267.509 22.579,267.184 22.535,266.787 22.639 C 266.367 22.749,266.065 22.650,266.065 22.403 C 266.065 22.170,265.919 22.069,265.742 22.179 C 265.564 22.289,264.954 22.137,264.388 21.841 C 263.821 21.546,263.073 21.303,262.726 21.302 C 262.378 21.301,262.094 21.142,262.094 20.950 C 262.094 20.758,261.850 20.694,261.552 20.808 C 261.255 20.922,261.011 20.825,261.011 20.592 C 261.011 20.332,260.731 20.257,260.289 20.397 C 259.892 20.523,259.567 20.471,259.567 20.281 C 259.567 20.091,258.998 19.829,258.303 19.699 C 257.608 19.569,257.040 19.296,257.040 19.093 C 257.040 18.888,256.718 18.826,256.318 18.953 C 255.875 19.093,255.596 19.018,255.596 18.758 C 255.596 18.525,255.372 18.420,255.099 18.525 C 254.826 18.630,254.187 18.500,253.679 18.237 C 253.172 17.973,252.258 17.648,251.649 17.514 C 251.040 17.381,250.542 17.137,250.542 16.973 C 250.542 16.808,250.217 16.759,249.819 16.863 C 249.422 16.967,249.097 16.875,249.097 16.660 C 249.097 16.444,248.870 16.355,248.592 16.462 C 248.315 16.569,247.979 16.480,247.846 16.264 C 247.712 16.049,247.464 15.959,247.292 16.065 C 247.121 16.171,246.879 16.092,246.755 15.890 C 246.630 15.689,246.212 15.523,245.827 15.523 C 245.442 15.523,245.126 15.366,245.126 15.174 C 245.126 14.981,244.883 14.918,244.585 15.032 C 244.287 15.146,244.043 15.049,244.043 14.816 C 244.043 14.556,243.764 14.481,243.321 14.621 C 242.895 14.756,242.599 14.686,242.599 14.449 C 242.599 14.228,242.396 14.073,242.148 14.103 C 241.421 14.191,240.072 13.664,240.072 13.291 C 240.072 13.102,239.747 13.051,239.350 13.177 C 238.908 13.317,238.628 13.242,238.628 12.982 C 238.628 12.749,238.390 12.650,238.098 12.761 C 237.807 12.873,237.482 12.826,237.377 12.656 C 237.272 12.486,236.374 12.152,235.380 11.914 C 234.387 11.675,233.574 11.349,233.574 11.189 C 233.574 11.029,233.249 10.983,232.852 11.087 C 232.455 11.191,232.130 11.099,232.130 10.884 C 232.130 10.668,231.903 10.579,231.625 10.686 C 231.347 10.792,231.011 10.703,230.878 10.488 C 230.745 10.273,230.496 10.183,230.325 10.289 C 230.154 10.395,229.912 10.316,229.787 10.114 C 229.662 9.912,229.245 9.747,228.860 9.747 C 228.474 9.747,228.159 9.590,228.159 9.398 C 228.159 9.205,227.915 9.141,227.617 9.256 C 227.319 9.370,227.076 9.273,227.076 9.040 C 227.076 8.780,226.796 8.704,226.354 8.845 C 225.927 8.980,225.632 8.910,225.632 8.673 C 225.632 8.452,225.429 8.296,225.181 8.327 C 224.453 8.415,223.105 7.888,223.105 7.515 C 223.105 7.326,222.780 7.275,222.383 7.401 C 221.940 7.541,221.661 7.466,221.661 7.206 C 221.661 6.973,221.417 6.875,221.119 6.990 C 220.821 7.104,220.578 7.054,220.578 6.880 C 220.578 6.705,219.928 6.452,219.134 6.318 C 218.339 6.184,217.690 5.908,217.690 5.706 C 217.690 5.503,217.446 5.431,217.148 5.546 C 216.850 5.660,216.606 5.611,216.606 5.438 C 216.606 5.264,216.282 5.207,215.884 5.311 C 215.465 5.420,215.162 5.322,215.162 5.075 C 215.162 4.842,215.000 4.751,214.801 4.874 C 214.603 4.996,214.237 4.968,213.989 4.810 C 213.741 4.653,213.375 4.514,213.177 4.502 C 212.978 4.490,212.858 4.281,212.909 4.037 C 212.972 3.736,212.713 3.667,212.096 3.822 C 211.550 3.959,211.191 3.895,211.191 3.661 C 211.191 3.447,210.948 3.365,210.650 3.480 C 210.352 3.594,210.108 3.497,210.108 3.263 C 210.108 3.004,209.829 2.928,209.386 3.069 C 208.960 3.204,208.664 3.133,208.664 2.897 C 208.664 2.676,208.461 2.520,208.213 2.550 C 207.486 2.639,206.137 2.112,206.137 1.739 C 206.137 1.550,205.812 1.499,205.415 1.625 C 204.973 1.765,204.693 1.689,204.693 1.430 C 204.693 1.197,204.460 1.095,204.175 1.205 C 203.890 1.314,203.598 1.228,203.527 1.013 C 203.390 0.603,198.613 0.287,197.202 0.595 M205.684 16.982 C 208.614 17.982,213.366 19.600,216.245 20.575 C 219.125 21.551,226.516 24.073,232.671 26.179 C 253.781 33.403,256.508 34.333,261.191 35.906 C 263.773 36.773,270.921 39.219,277.076 41.340 C 283.231 43.462,289.404 45.570,290.794 46.026 C 292.184 46.481,298.357 48.588,304.513 50.708 C 310.668 52.828,318.060 55.355,320.939 56.323 C 323.818 57.291,330.235 59.481,335.199 61.190 C 340.162 62.898,346.579 65.089,349.458 66.059 C 370.127 73.024,370.599 73.224,368.163 73.963 C 367.506 74.162,364.125 75.317,360.650 76.528 C 357.175 77.740,352.220 79.444,349.639 80.316 C 347.058 81.188,340.884 83.296,335.921 85.002 C 330.957 86.707,323.321 89.314,318.953 90.795 C 314.585 92.276,307.193 94.798,302.527 96.399 C 297.861 98.000,291.688 100.109,288.809 101.085 C 285.930 102.061,279.513 104.251,274.549 105.952 C 269.585 107.654,263.168 109.843,260.289 110.818 C 257.410 111.793,250.018 114.323,243.863 116.440 C 237.708 118.557,231.534 120.664,230.144 121.122 C 228.755 121.580,222.338 123.773,215.884 125.995 C 198.776 131.887,200.392 131.465,197.924 130.689 C 196.782 130.330,191.787 128.632,186.823 126.916 C 181.859 125.200,175.442 122.997,172.563 122.021 C 169.684 121.045,162.292 118.520,156.137 116.411 C 149.982 114.301,143.809 112.198,142.419 111.736 C 141.029 111.275,134.612 109.089,128.159 106.879 C 121.706 104.669,114.070 102.062,111.191 101.085 C 108.312 100.109,102.139 98.000,97.473 96.399 C 92.807 94.798,85.415 92.273,81.047 90.789 C 76.679 89.305,69.043 86.699,64.079 84.998 C 59.116 83.297,52.942 81.192,50.361 80.319 C 39.499 76.648,30.940 73.660,30.754 73.473 C 30.224 72.944,30.906 72.688,50.542 66.058 C 53.421 65.085,59.838 62.896,64.801 61.193 C 69.765 59.490,76.182 57.301,79.061 56.330 C 81.940 55.358,89.332 52.835,95.487 50.722 C 113.588 44.511,122.396 41.499,125.090 40.600 C 126.480 40.136,132.897 37.948,139.350 35.739 C 145.803 33.529,153.195 31.008,155.776 30.136 C 158.357 29.263,164.531 27.153,169.495 25.447 C 179.172 22.120,195.645 16.497,198.014 15.712 C 200.080 15.028,199.855 14.991,205.684 16.982 M17.904 84.149 C 20.141 84.941,31.292 88.754,45.307 93.518 C 49.874 95.071,58.646 98.066,64.801 100.174 C 70.957 102.282,78.348 104.805,81.227 105.780 C 85.826 107.338,104.684 113.787,112.816 116.583 C 114.404 117.129,119.116 118.732,123.285 120.146 C 127.455 121.560,135.171 124.192,140.433 125.995 C 145.695 127.798,152.112 129.987,154.693 130.858 C 157.274 131.730,163.204 133.756,167.870 135.361 C 172.536 136.966,179.765 139.428,183.935 140.833 C 188.105 142.237,191.804 143.575,192.156 143.805 C 192.753 144.196,193.222 342.638,192.627 343.233 C 192.470 343.390,186.187 341.305,167.329 334.840 C 146.729 327.777,139.188 325.203,136.643 324.365 C 135.253 323.908,129.079 321.803,122.924 319.687 C 116.769 317.572,109.377 315.042,106.498 314.066 C 103.619 313.089,97.202 310.901,92.238 309.204 C 87.274 307.506,80.857 305.319,77.978 304.343 C 75.099 303.368,68.926 301.252,64.260 299.642 C 59.594 298.031,53.421 295.922,50.542 294.953 C 47.662 293.985,41.408 291.857,36.643 290.225 C 31.877 288.593,25.054 286.266,21.480 285.054 L 14.982 282.851 14.891 183.122 C 14.815 99.769,14.880 83.394,15.286 83.394 C 15.553 83.394,16.731 83.733,17.904 84.149 M385.109 183.115 L 385.018 282.836 378.520 285.046 C 374.946 286.261,368.123 288.591,363.357 290.224 C 358.592 291.857,352.338 293.985,349.458 294.953 C 346.579 295.922,340.406 298.032,335.740 299.644 C 331.074 301.255,324.901 303.373,322.022 304.349 C 319.143 305.326,312.726 307.512,307.762 309.208 C 302.798 310.903,296.381 313.089,293.502 314.066 C 290.623 315.042,283.231 317.570,277.076 319.684 C 270.921 321.797,263.529 324.320,260.650 325.291 C 257.771 326.261,251.597 328.367,246.931 329.970 C 242.265 331.574,236.092 333.683,233.213 334.657 C 230.334 335.632,223.673 337.919,218.412 339.740 C 213.150 341.560,208.439 343.070,207.942 343.095 L 207.040 343.141 206.955 243.863 C 206.908 189.260,206.989 144.404,207.135 144.183 C 207.281 143.963,211.056 142.546,215.523 141.036 C 219.991 139.526,227.464 136.975,232.130 135.367 C 236.796 133.759,242.726 131.731,245.307 130.861 C 247.888 129.991,255.280 127.471,261.733 125.261 C 268.186 123.051,275.821 120.447,278.700 119.474 C 281.579 118.501,285.316 117.228,287.004 116.644 C 288.691 116.060,293.890 114.279,298.556 112.685 C 303.222 111.091,312.076 108.064,318.231 105.958 C 324.386 103.853,331.778 101.332,334.657 100.357 C 337.536 99.381,345.171 96.776,351.625 94.566 C 358.078 92.357,364.738 90.086,366.426 89.520 C 368.114 88.953,372.825 87.347,376.895 85.951 C 380.966 84.554,384.499 83.407,384.748 83.402 C 385.109 83.395,385.182 103.450,385.109 183.115 " stroke="none" fill="#040405" fill-rule="evenodd"></path><path id="path1" d="M194.224 17.470 C 191.146 18.517,186.354 20.135,183.574 21.066 C 180.794 21.996,178.274 22.894,177.974 23.061 C 177.674 23.228,176.455 23.637,175.266 23.971 C 174.077 24.304,172.780 24.731,172.383 24.920 C 171.986 25.109,169.386 25.999,166.606 26.899 C 163.827 27.798,161.307 28.671,161.006 28.838 C 160.706 29.004,159.488 29.413,158.299 29.747 C 157.110 30.080,155.812 30.506,155.415 30.694 C 154.694 31.034,150.559 32.442,136.282 37.207 C 132.112 38.599,128.375 39.888,127.978 40.071 C 127.581 40.255,124.982 41.150,122.202 42.061 C 119.422 42.972,116.823 43.860,116.426 44.035 C 116.029 44.210,114.810 44.620,113.718 44.946 C 112.626 45.272,111.408 45.683,111.011 45.858 C 110.268 46.186,105.091 47.949,91.877 52.373 C 87.708 53.769,83.971 55.062,83.574 55.246 C 83.177 55.430,80.578 56.320,77.798 57.224 C 75.018 58.127,72.419 59.012,72.022 59.191 C 71.625 59.369,70.406 59.782,69.314 60.108 C 68.222 60.434,67.004 60.849,66.606 61.030 C 65.760 61.416,56.110 64.682,52.708 65.734 C 51.417 66.133,50.036 66.614,49.639 66.802 C 48.896 67.155,45.150 68.445,41.336 69.663 C 35.684 71.468,31.441 73.046,31.591 73.289 C 31.682 73.437,33.181 74.006,34.922 74.553 C 36.662 75.101,38.249 75.664,38.448 75.805 C 38.646 75.946,39.621 76.272,40.614 76.529 C 41.606 76.786,42.906 77.210,43.502 77.470 C 44.097 77.731,46.778 78.677,49.458 79.573 C 52.139 80.469,58.394 82.589,63.357 84.284 C 68.321 85.979,74.576 88.098,77.256 88.993 C 79.937 89.889,82.455 90.776,82.852 90.965 C 83.249 91.153,84.547 91.581,85.736 91.914 C 86.925 92.247,88.143 92.656,88.443 92.823 C 88.744 92.990,91.264 93.869,94.043 94.776 C 96.823 95.683,99.422 96.568,99.819 96.743 C 100.217 96.918,102.572 97.727,105.054 98.540 C 107.536 99.353,109.892 100.166,110.289 100.346 C 110.686 100.525,112.229 101.067,113.718 101.550 C 120.244 103.665,126.591 105.803,127.256 106.112 C 127.653 106.296,128.872 106.714,129.964 107.040 C 131.056 107.366,132.274 107.777,132.671 107.954 C 133.069 108.130,135.668 109.015,138.448 109.921 C 141.227 110.826,143.745 111.667,144.043 111.791 C 145.097 112.226,155.807 115.921,157.942 116.586 C 159.134 116.957,164.170 118.659,169.134 120.369 C 174.097 122.079,180.352 124.205,183.032 125.093 C 185.713 125.981,188.152 126.849,188.452 127.022 C 188.752 127.194,189.971 127.608,191.160 127.942 C 192.349 128.275,193.646 128.697,194.043 128.880 C 194.440 129.062,195.939 129.595,197.373 130.062 L 199.980 130.913 205.495 129.054 C 208.529 128.031,211.255 127.095,211.552 126.972 C 211.850 126.849,214.368 126.002,217.148 125.090 C 219.928 124.177,222.527 123.283,222.924 123.103 C 223.321 122.923,224.458 122.531,225.451 122.232 C 226.444 121.933,230.099 120.693,233.574 119.476 C 237.049 118.258,240.866 116.959,242.058 116.587 C 244.586 115.799,254.945 112.207,256.437 111.602 C 256.999 111.374,258.218 111.002,259.145 110.776 C 260.072 110.550,260.993 110.241,261.191 110.090 C 261.390 109.939,262.527 109.539,263.718 109.200 C 264.910 108.862,266.372 108.373,266.968 108.115 C 267.563 107.856,268.944 107.375,270.036 107.046 C 271.128 106.716,272.347 106.296,272.744 106.112 C 273.409 105.803,279.756 103.665,286.282 101.550 C 287.771 101.067,289.314 100.525,289.711 100.346 C 290.108 100.166,292.464 99.353,294.946 98.540 C 297.428 97.727,299.783 96.918,300.181 96.743 C 300.578 96.568,303.177 95.683,305.957 94.776 C 308.736 93.869,311.256 92.990,311.557 92.823 C 311.857 92.656,313.075 92.247,314.264 91.914 C 315.453 91.581,316.751 91.153,317.148 90.965 C 317.545 90.776,320.063 89.889,322.744 88.993 C 325.424 88.098,331.679 85.979,336.643 84.284 C 341.606 82.589,347.861 80.469,350.542 79.573 C 353.222 78.677,355.903 77.731,356.498 77.470 C 357.094 77.210,358.394 76.786,359.386 76.529 C 360.379 76.272,361.354 75.941,361.552 75.794 C 361.751 75.647,363.051 75.182,364.440 74.760 C 369.674 73.172,369.778 73.263,358.664 69.671 C 354.535 68.337,351.080 67.143,350.361 66.802 C 349.964 66.614,348.583 66.133,347.292 65.734 C 343.890 64.682,334.240 61.416,333.394 61.030 C 332.996 60.849,331.778 60.434,330.686 60.108 C 329.594 59.782,328.375 59.369,327.978 59.191 C 327.581 59.012,324.982 58.127,322.202 57.224 C 319.422 56.320,316.823 55.430,316.426 55.246 C 316.029 55.062,312.292 53.769,308.123 52.373 C 294.909 47.949,289.732 46.186,288.989 45.858 C 288.592 45.683,287.374 45.272,286.282 44.946 C 285.190 44.620,283.971 44.210,283.574 44.035 C 283.177 43.860,280.578 42.972,277.798 42.061 C 275.018 41.150,272.419 40.255,272.022 40.071 C 271.625 39.888,267.807 38.571,263.538 37.144 C 259.269 35.718,254.639 34.170,253.249 33.705 C 251.859 33.240,250.397 32.705,250.000 32.517 C 249.603 32.329,248.303 31.906,247.112 31.577 C 245.921 31.248,244.783 30.857,244.585 30.708 C 244.386 30.559,243.412 30.227,242.419 29.969 C 241.426 29.712,240.126 29.290,239.531 29.031 C 238.935 28.773,236.173 27.819,233.394 26.912 C 230.614 26.005,228.014 25.109,227.617 24.920 C 227.220 24.731,225.923 24.304,224.734 23.971 C 223.545 23.637,222.326 23.228,222.026 23.061 C 221.726 22.894,219.206 21.997,216.426 21.066 C 213.646 20.135,208.794 18.507,205.644 17.449 C 202.494 16.390,199.894 15.533,199.868 15.545 C 199.841 15.557,197.301 16.423,194.224 17.470 M15.162 182.985 L 15.162 282.292 16.155 282.790 C 16.701 283.064,17.960 283.486,18.953 283.729 C 19.946 283.971,21.245 284.391,21.841 284.662 C 22.437 284.932,23.736 285.401,24.729 285.704 C 25.722 286.006,29.377 287.245,32.852 288.455 C 36.327 289.666,40.144 290.968,41.336 291.348 C 45.139 292.562,48.895 293.856,49.639 294.208 C 50.036 294.397,51.417 294.877,52.708 295.277 C 56.110 296.329,65.760 299.595,66.606 299.980 C 67.004 300.161,68.222 300.576,69.314 300.903 C 70.406 301.229,71.625 301.646,72.022 301.830 C 72.419 302.014,74.937 302.890,77.617 303.777 C 80.298 304.663,86.471 306.748,91.336 308.409 C 96.200 310.071,102.455 312.192,105.235 313.123 C 108.014 314.054,110.534 314.952,110.835 315.119 C 111.135 315.286,112.353 315.695,113.542 316.028 C 114.731 316.362,116.029 316.784,116.426 316.967 C 116.823 317.150,119.422 318.046,122.202 318.957 C 124.982 319.868,127.581 320.760,127.978 320.940 C 128.601 321.222,138.796 324.690,146.751 327.325 C 148.141 327.785,149.603 328.318,150.000 328.508 C 150.397 328.698,151.695 329.126,152.884 329.459 C 154.073 329.792,155.291 330.196,155.591 330.355 C 155.892 330.514,157.112 330.957,158.303 331.339 C 163.091 332.872,171.704 335.778,172.383 336.087 C 173.091 336.411,181.106 339.137,185.379 340.508 C 186.570 340.890,187.951 341.377,188.448 341.589 C 188.944 341.801,190.041 342.189,190.884 342.450 L 192.419 342.926 192.419 243.560 L 192.419 144.194 187.635 142.615 C 185.005 141.747,182.690 140.926,182.491 140.791 C 182.292 140.656,181.318 140.335,180.325 140.078 C 179.332 139.821,178.032 139.397,177.437 139.136 C 176.841 138.876,174.161 137.929,171.480 137.034 C 158.555 132.714,150.294 129.904,149.639 129.602 C 149.242 129.420,146.643 128.531,143.863 127.628 C 141.083 126.724,138.484 125.831,138.087 125.642 C 137.690 125.453,136.392 125.026,135.203 124.693 C 134.014 124.359,132.796 123.949,132.495 123.780 C 132.195 123.611,129.675 122.737,126.895 121.838 C 124.116 120.938,121.516 120.050,121.119 119.865 C 120.722 119.679,119.585 119.279,118.592 118.976 C 115.730 118.102,111.439 116.635,110.650 116.261 C 110.253 116.073,108.872 115.592,107.581 115.193 C 104.179 114.141,94.528 110.874,93.682 110.489 C 93.285 110.308,92.067 109.890,90.975 109.561 C 89.883 109.231,88.502 108.750,87.906 108.492 C 87.310 108.233,85.848 107.745,84.657 107.406 C 83.466 107.068,82.329 106.667,82.130 106.516 C 81.931 106.365,80.957 106.043,79.964 105.801 C 78.971 105.559,77.671 105.141,77.076 104.872 C 76.480 104.603,72.581 103.237,68.412 101.837 C 64.242 100.437,57.987 98.307,54.513 97.102 C 51.038 95.898,47.220 94.605,46.029 94.230 C 42.854 93.229,33.150 89.912,32.310 89.540 C 31.913 89.365,30.695 88.954,29.603 88.628 C 28.511 88.302,27.292 87.891,26.895 87.714 C 26.498 87.537,23.919 86.643,21.164 85.726 C 18.410 84.809,15.932 83.973,15.659 83.868 C 15.238 83.706,15.162 98.856,15.162 182.985 M378.881 85.713 C 375.903 86.747,373.222 87.692,372.924 87.812 C 372.626 87.932,371.489 88.299,370.397 88.626 C 369.305 88.953,368.087 89.365,367.690 89.540 C 366.850 89.912,357.146 93.229,353.971 94.230 C 352.780 94.605,348.962 95.910,345.487 97.128 C 342.013 98.347,338.195 99.648,337.004 100.019 C 334.475 100.808,324.116 104.399,322.624 105.005 C 322.062 105.233,320.844 105.604,319.917 105.830 C 318.990 106.056,318.069 106.365,317.870 106.516 C 317.671 106.667,316.534 107.068,315.343 107.406 C 314.152 107.745,312.690 108.233,312.094 108.492 C 311.498 108.750,310.117 109.231,309.025 109.561 C 307.933 109.890,306.715 110.308,306.318 110.489 C 305.498 110.862,295.967 114.092,292.419 115.199 C 291.128 115.601,289.585 116.149,288.989 116.417 C 288.394 116.684,287.175 117.096,286.282 117.331 C 285.388 117.567,284.495 117.887,284.296 118.042 C 284.097 118.197,282.960 118.594,281.769 118.923 C 280.578 119.253,279.278 119.675,278.881 119.862 C 278.484 120.049,275.884 120.938,273.105 121.838 C 270.325 122.737,267.805 123.611,267.505 123.780 C 267.204 123.949,265.986 124.359,264.797 124.693 C 263.608 125.026,262.310 125.453,261.913 125.642 C 261.516 125.831,258.917 126.724,256.137 127.628 C 253.357 128.531,250.758 129.420,250.361 129.602 C 249.667 129.922,238.702 133.646,228.520 137.020 C 225.839 137.909,223.401 138.774,223.100 138.942 C 222.800 139.111,221.582 139.522,220.393 139.855 C 219.204 140.188,217.906 140.616,217.509 140.806 C 216.717 141.186,212.455 142.647,209.477 143.562 L 207.581 144.144 207.581 243.523 L 207.581 342.902 208.935 342.531 C 209.680 342.327,210.596 341.997,210.972 341.798 C 211.348 341.599,212.647 341.136,213.860 340.769 C 215.847 340.169,226.466 336.522,227.798 335.983 C 228.424 335.730,238.496 332.364,241.697 331.339 C 242.888 330.957,244.108 330.514,244.409 330.355 C 244.709 330.196,245.927 329.792,247.116 329.459 C 248.305 329.126,249.603 328.698,250.000 328.508 C 250.698 328.174,253.803 327.097,258.303 325.629 C 260.881 324.787,271.428 321.152,272.202 320.838 C 272.500 320.717,275.018 319.872,277.798 318.959 C 280.578 318.047,283.177 317.150,283.574 316.967 C 283.971 316.784,285.269 316.362,286.458 316.028 C 287.647 315.695,288.865 315.286,289.165 315.119 C 289.466 314.952,291.904 314.084,294.585 313.189 C 297.265 312.295,303.520 310.173,308.484 308.474 C 313.448 306.775,319.702 304.660,322.383 303.775 C 325.063 302.889,327.581 302.014,327.978 301.830 C 328.375 301.646,329.594 301.229,330.686 300.903 C 331.778 300.576,332.996 300.160,333.394 299.978 C 333.791 299.796,336.390 298.907,339.170 298.004 C 341.949 297.101,344.549 296.217,344.946 296.040 C 345.343 295.864,346.561 295.453,347.653 295.126 C 348.745 294.800,349.964 294.383,350.361 294.200 C 351.233 293.797,355.654 292.297,358.742 291.356 C 359.976 290.980,361.159 290.564,361.372 290.433 C 361.584 290.302,362.768 289.889,364.002 289.516 C 365.236 289.143,367.870 288.259,369.856 287.552 C 371.841 286.845,374.278 286.016,375.271 285.710 C 376.264 285.404,377.563 284.932,378.159 284.662 C 378.755 284.391,380.054 283.971,381.047 283.729 C 382.040 283.486,383.299 283.064,383.845 282.790 L 384.838 282.292 384.838 183.023 C 384.838 128.425,384.716 83.772,384.567 83.793 C 384.418 83.815,381.859 84.678,378.881 85.713 " stroke="none" fill="#b304fb" fill-rule="evenodd"></path><path id="path2" d="M0.178 180.505 C 0.178 239.973,0.220 264.301,0.271 234.567 C 0.322 204.833,0.322 156.178,0.271 126.444 C 0.220 96.710,0.178 121.038,0.178 180.505 M399.817 180.505 C 399.817 239.973,399.859 264.301,399.910 234.567 C 399.961 204.833,399.961 156.178,399.910 126.444 C 399.859 96.710,399.817 121.038,399.817 180.505 " stroke="none" fill="#a5a5a5" fill-rule="evenodd"></path><path id="path3" d="" stroke="none" fill="#80329f" fill-rule="evenodd"></path><path id="path4" d="M183.845 4.948 C 183.398 5.034,183.032 5.233,183.032 5.390 C 183.032 5.547,183.439 5.598,183.935 5.504 C 184.431 5.409,184.838 5.187,184.838 5.012 C 184.838 4.837,184.797 4.715,184.747 4.742 C 184.698 4.769,184.292 4.862,183.845 4.948 M145.939 17.944 C 145.492 18.030,145.126 18.229,145.126 18.387 C 145.126 18.544,145.532 18.595,146.029 18.500 C 146.525 18.405,146.931 18.184,146.931 18.008 C 146.931 17.833,146.891 17.712,146.841 17.739 C 146.792 17.766,146.385 17.858,145.939 17.944 M253.254 18.059 C 253.494 18.447,254.874 18.755,254.874 18.420 C 254.874 18.263,254.472 18.058,253.982 17.964 C 253.492 17.871,253.164 17.913,253.254 18.059 M128.971 23.720 C 128.524 23.807,128.159 24.006,128.159 24.163 C 128.159 24.320,128.565 24.371,129.061 24.276 C 129.558 24.181,129.964 23.960,129.964 23.785 C 129.964 23.609,129.923 23.488,129.874 23.515 C 129.824 23.542,129.418 23.634,128.971 23.720 M386.467 63.546 C 386.707 63.935,388.087 64.242,388.087 63.907 C 388.087 63.750,387.685 63.545,387.195 63.452 C 386.705 63.358,386.377 63.401,386.467 63.546 M207.037 243.682 C 207.037 298.384,207.079 320.763,207.130 293.412 C 207.181 266.060,207.181 221.304,207.130 193.953 C 207.079 166.602,207.037 188.980,207.037 243.682 " stroke="none" fill="#6c6c6c" fill-rule="evenodd"></path><path id="path5" d="" stroke="none" fill="#9434bc" fill-rule="evenodd"></path><path id="path6" d="" stroke="none" fill="#64277f" fill-rule="evenodd"></path><path id="path7" d="M207.398 243.682 C 207.398 298.384,207.440 320.763,207.491 293.412 C 207.542 266.060,207.542 221.304,207.491 193.953 C 207.440 166.602,207.398 188.980,207.398 243.682 M192.597 243.682 C 192.597 298.186,192.638 320.483,192.690 293.231 C 192.741 265.979,192.741 221.385,192.690 194.134 C 192.638 166.882,192.597 189.179,192.597 243.682 " stroke="none" fill="#9a26cc" fill-rule="evenodd"></path><path id="path8" d="M14.979 183.574 C 14.979 237.780,15.021 259.901,15.072 232.733 C 15.123 205.564,15.123 161.214,15.072 134.177 C 15.021 107.139,14.979 129.368,14.979 183.574 M385.015 183.574 C 385.015 237.780,385.057 259.901,385.108 232.733 C 385.159 205.564,385.159 161.214,385.108 134.177 C 385.057 107.139,385.015 129.368,385.015 183.574 " stroke="none" fill="#8c2cbc" fill-rule="evenodd"></path></g></svg>